<mxfile host="65bd71144e">
    <diagram id="XJTCJvb88TlIlMbMh-gC" name="Страница 1">
        <mxGraphModel dx="1906" dy="2589" grid="1" gridSize="10" guides="1" tooltips="1" connect="1" arrows="1" fold="1" page="1" pageScale="1" pageWidth="827" pageHeight="1169" math="0" shadow="0">
            <root>
                <mxCell id="0"/>
                <mxCell id="1" parent="0"/>
                <mxCell id="2" value="&lt;div style=&quot;color: rgb(204, 204, 204); background-color: rgb(31, 31, 31); font-family: Menlo, Monaco, &amp;quot;Courier New&amp;quot;, monospace; line-height: 18px;&quot;&gt;&lt;div&gt;vessel: &lt;span style=&quot;color: #6a9955;&quot;&gt;// судно&lt;/span&gt;&lt;/div&gt;&lt;div&gt;    {&lt;/div&gt;&lt;div&gt;    &lt;span style=&quot;color: #9cdcfe;&quot;&gt;&quot;id&quot;&lt;/span&gt;:&lt;span style=&quot;color: #b5cea8;&quot;&gt;1&lt;/span&gt;, &lt;span style=&quot;color: #6a9955;&quot;&gt;//суррогатный идентификатор заявки&lt;/span&gt;&lt;/div&gt;&lt;div&gt;    &lt;span style=&quot;color: #9cdcfe;&quot;&gt;&quot;name&quot;&lt;/span&gt;:&lt;span style=&quot;color: #ce9178;&quot;&gt;&quot;ДЮК II&quot;&lt;/span&gt;,&lt;span style=&quot;color: #6a9955;&quot;&gt;// Наименование судна&lt;/span&gt;&lt;/div&gt;&lt;div&gt;    &lt;span style=&quot;color: #9cdcfe;&quot;&gt;&quot;ice_class&quot;&lt;/span&gt;:&lt;span style=&quot;color: #ce9178;&quot;&gt;&quot;Arc 5&quot;&lt;/span&gt;, &lt;span style=&quot;color: #6a9955;&quot;&gt;//Ледовый класс, допустимые значения &quot;NO&quot;,&quot;Arc 1&quot;,&quot;Arc 2&quot;,&quot;Arc 3&quot;, &quot;Arc 4&quot;,&quot;Arc 5&quot;,&quot;Arc 7&quot;,&quot;Arc 9&quot;&lt;/span&gt;&lt;/div&gt;&lt;div&gt;    &lt;span style=&quot;color: #9cdcfe;&quot;&gt;&quot;speed&quot;&lt;/span&gt;:&lt;span style=&quot;color: #b5cea8;&quot;&gt;15.0&lt;/span&gt;, &lt;span style=&quot;color: #6a9955;&quot;&gt;//скорость в узлах по чистой воде&lt;/span&gt;&lt;/div&gt;&lt;div&gt;    &lt;span style=&quot;color: #9cdcfe;&quot;&gt;&quot;source&quot;&lt;/span&gt;:&lt;span style=&quot;color: #b5cea8;&quot;&gt;11&lt;/span&gt;, &lt;span style=&quot;color: #6a9955;&quot;&gt;// Пункт начала плавания, номер вершины в маршрутном графе&lt;/span&gt;&lt;/div&gt;&lt;div&gt;    &lt;span style=&quot;color: #9cdcfe;&quot;&gt;&quot;source_name&quot;&lt;/span&gt;:&lt;span style=&quot;color: #ce9178;&quot;&gt;&quot;Новый порт&quot;&lt;/span&gt;, &lt;span style=&quot;color: #6a9955;&quot;&gt;// название, определяется по номеру вершины&lt;/span&gt;&lt;/div&gt;&lt;div&gt;    &lt;span style=&quot;color: #9cdcfe;&quot;&gt;&quot;target&quot;&lt;/span&gt;:&lt;span style=&quot;color: #b5cea8;&quot;&gt;41&lt;/span&gt;, &lt;span style=&quot;color: #6a9955;&quot;&gt;//Пункт окончания плавания, номер вершины в маршрутном графе&lt;/span&gt;&lt;/div&gt;&lt;div&gt;    &lt;span style=&quot;color: #9cdcfe;&quot;&gt;&quot;target_name&quot;&lt;/span&gt;:&lt;span style=&quot;color: #ce9178;&quot;&gt;&quot;Рейд Мурманска&quot;&lt;/span&gt;, &lt;span style=&quot;color: #6a9955;&quot;&gt;// название, определяется по номеру вершины&lt;/span&gt;&lt;/div&gt;&lt;div&gt;    &lt;span style=&quot;color: #9cdcfe;&quot;&gt;&quot;start_date&quot;&lt;/span&gt;:&lt;span style=&quot;color: #ce9178;&quot;&gt;&quot;01.03.2022&quot;&lt;/span&gt; &lt;span style=&quot;color: #6a9955;&quot;&gt;//Дата начала плавания &lt;/span&gt;&lt;/div&gt;&lt;div&gt;},&lt;/div&gt;&lt;/div&gt;" style="rounded=0;whiteSpace=wrap;html=1;" vertex="1" parent="1">
                    <mxGeometry x="100" y="-700" width="570" height="270" as="geometry"/>
                </mxCell>
                <mxCell id="3" value="&lt;div style=&quot;color: rgb(204, 204, 204); background-color: rgb(31, 31, 31); font-family: Menlo, Monaco, &amp;quot;Courier New&amp;quot;, monospace; line-height: 18px;&quot;&gt;&lt;div&gt;icebreaker:&lt;span style=&quot;color: #6a9955;&quot;&gt;//ледокол&lt;/span&gt;&lt;/div&gt;&lt;div&gt;{&lt;/div&gt;&lt;div&gt;    &lt;span style=&quot;color: #9cdcfe;&quot;&gt;&quot;id&quot;&lt;/span&gt;:&lt;span style=&quot;color: #b5cea8;&quot;&gt;1&lt;/span&gt;, &lt;span style=&quot;color: #6a9955;&quot;&gt;//суррогатный идентификатор ледокола&lt;/span&gt;&lt;/div&gt;&lt;div&gt;    &lt;span style=&quot;color: #9cdcfe;&quot;&gt;&quot;name&quot;&lt;/span&gt;:&lt;span style=&quot;color: #ce9178;&quot;&gt;&quot;Таймыр&quot;&lt;/span&gt;,&lt;span style=&quot;color: #6a9955;&quot;&gt;// Наименование судна&lt;/span&gt;&lt;/div&gt;&lt;div&gt;    &lt;span style=&quot;color: #9cdcfe;&quot;&gt;&quot;ice_class&quot;&lt;/span&gt;:&lt;span style=&quot;color: #ce9178;&quot;&gt;&quot;Arc 9&quot;&lt;/span&gt;, &lt;span style=&quot;color: #6a9955;&quot;&gt;//константа&lt;/span&gt;&lt;/div&gt;&lt;div&gt;    &lt;span style=&quot;color: #9cdcfe;&quot;&gt;&quot;speed&quot;&lt;/span&gt;:&lt;span style=&quot;color: #b5cea8;&quot;&gt;18.5&lt;/span&gt;, &lt;span style=&quot;color: #6a9955;&quot;&gt;//скорость в узлах по чистой воде&lt;/span&gt;&lt;/div&gt;&lt;div&gt;    &lt;span style=&quot;color: #9cdcfe;&quot;&gt;&quot;speed_penalty_19_15&quot;&lt;/span&gt;:&lt;span style=&quot;color: #b5cea8;&quot;&gt;0.1&lt;/span&gt;, &lt;span style=&quot;color: #6a9955;&quot;&gt;// штраф при движении в условиях 19-15&lt;/span&gt;&lt;/div&gt;&lt;div&gt;    &lt;span style=&quot;color: #9cdcfe;&quot;&gt;&quot;speed_penalty_14_10&quot;&lt;/span&gt;:&lt;span style=&quot;color: #b5cea8;&quot;&gt;0.25&lt;/span&gt;, &lt;span style=&quot;color: #6a9955;&quot;&gt;// штраф при движении в условиях 14-10&lt;/span&gt;&lt;/div&gt;&lt;div&gt;    &lt;span style=&quot;color: #9cdcfe;&quot;&gt;&quot;source&quot;&lt;/span&gt;:&lt;span style=&quot;color: #b5cea8;&quot;&gt;41&lt;/span&gt;, &lt;span style=&quot;color: #6a9955;&quot;&gt;// Пункт начала плавания, номер вершины в маршрутном графе&lt;/span&gt;&lt;/div&gt;&lt;div&gt;    &lt;span style=&quot;color: #9cdcfe;&quot;&gt;&quot;source_name&quot;&lt;/span&gt;:&lt;span style=&quot;color: #ce9178;&quot;&gt;&quot;Рейд Мурманска&quot;&lt;/span&gt;,&lt;span style=&quot;color: #6a9955;&quot;&gt;//Определяется по номеру вершины&lt;/span&gt;&lt;/div&gt;&lt;div&gt;    &lt;span style=&quot;color: #9cdcfe;&quot;&gt;&quot;start_date&quot;&lt;/span&gt;:&lt;span style=&quot;color: #ce9178;&quot;&gt;&quot;27.02.2022&quot;&lt;/span&gt; &lt;span style=&quot;color: #6a9955;&quot;&gt;//Дата начала плавания &lt;/span&gt;&lt;/div&gt;&lt;div&gt;}&lt;/div&gt;&lt;/div&gt;" style="rounded=0;whiteSpace=wrap;html=1;" vertex="1" parent="1">
                    <mxGeometry x="100" y="-415" width="570" height="240" as="geometry"/>
                </mxCell>
                <mxCell id="4" value="&lt;div style=&quot;color: rgb(204, 204, 204); background-color: rgb(31, 31, 31); font-family: Menlo, Monaco, &amp;quot;Courier New&amp;quot;, monospace; line-height: 18px;&quot;&gt;&lt;div style=&quot;line-height: 18px;&quot;&gt;&lt;div&gt;base_node:{ &lt;span style=&quot;color: #6a9955;&quot;&gt;// вершина графа (точка)&lt;/span&gt;&lt;/div&gt;&lt;div&gt;    &lt;span style=&quot;color: #9cdcfe;&quot;&gt;&quot;id&quot;&lt;/span&gt;:&lt;span style=&quot;color: #b5cea8;&quot;&gt;0&lt;/span&gt;, &lt;span style=&quot;color: #6a9955;&quot;&gt;// идентификатор вершины графа&lt;/span&gt;&lt;/div&gt;&lt;div&gt;    &lt;span style=&quot;color: #9cdcfe;&quot;&gt;&quot;lat&quot;&lt;/span&gt;:&lt;span style=&quot;color: #b5cea8;&quot;&gt;73.1&lt;/span&gt;, &lt;/div&gt;&lt;div&gt;    &lt;span style=&quot;color: #9cdcfe;&quot;&gt;&quot;lon&quot;&lt;/span&gt; : &lt;span style=&quot;color: #b5cea8;&quot;&gt;80&lt;/span&gt;,&lt;/div&gt;&lt;div&gt;    &lt;span style=&quot;color: #9cdcfe;&quot;&gt;&quot;point_name&quot;&lt;/span&gt; : &lt;span style=&quot;color: #ce9178;&quot;&gt;&quot;Бухта Север и Диксон&quot;&lt;/span&gt;, &lt;/div&gt;&lt;div&gt;    &lt;span style=&quot;color: #9cdcfe;&quot;&gt;&quot;rep_id&quot;&lt;/span&gt;:&lt;span style=&quot;color: #b5cea8;&quot;&gt;1010&lt;/span&gt; &lt;span style=&quot;color: #6a9955;&quot;&gt;//rep_id - обозначение на картинке, нет явного требования к использованию&lt;/span&gt;&lt;/div&gt;&lt;div&gt;}&lt;/div&gt;&lt;/div&gt;&lt;/div&gt;" style="rounded=0;whiteSpace=wrap;html=1;" vertex="1" parent="1">
                    <mxGeometry x="100" y="-1100" width="570" height="160" as="geometry"/>
                </mxCell>
                <mxCell id="5" value="&lt;div style=&quot;color: rgb(204, 204, 204); background-color: rgb(31, 31, 31); font-family: Menlo, Monaco, &amp;quot;Courier New&amp;quot;, monospace; line-height: 18px;&quot;&gt;&lt;div style=&quot;line-height: 18px;&quot;&gt;&lt;div style=&quot;line-height: 18px;&quot;&gt;&lt;div&gt;base_edge: { &lt;span style=&quot;color: #6a9955;&quot;&gt;//ребро графа - линия между точками&lt;/span&gt;&lt;/div&gt;&lt;div&gt;    &lt;span style=&quot;color: #9cdcfe;&quot;&gt;&quot;id&quot;&lt;/span&gt;:&lt;span style=&quot;color: #b5cea8;&quot;&gt;1&lt;/span&gt;, &lt;span style=&quot;color: #6a9955;&quot;&gt;//сурроготный ключ для фронта (если нуженб пока непонятно)  &lt;/span&gt;&lt;/div&gt;&lt;div&gt;    &lt;span style=&quot;color: #9cdcfe;&quot;&gt;&quot;start_point_id&quot;&lt;/span&gt;:&lt;span style=&quot;color: #b5cea8;&quot;&gt;44&lt;/span&gt;, &lt;span style=&quot;color: #6a9955;&quot;&gt;// начальная вершина&lt;/span&gt;&lt;/div&gt;&lt;div&gt;    &lt;span style=&quot;color: #9cdcfe;&quot;&gt;&quot;end_point_id&quot;&lt;/span&gt;:&lt;span style=&quot;color: #b5cea8;&quot;&gt;15&lt;/span&gt;,  &lt;span style=&quot;color: #6a9955;&quot;&gt;// конечная вершина&lt;/span&gt;&lt;/div&gt;&lt;div&gt;    &lt;span style=&quot;color: #9cdcfe;&quot;&gt;&quot;length&quot;&lt;/span&gt;:&lt;span style=&quot;color: #b5cea8;&quot;&gt;270.0166416&lt;/span&gt;, &lt;span style=&quot;color: #6a9955;&quot;&gt;// длина в морских милях&lt;/span&gt;&lt;/div&gt;&lt;div&gt;    &lt;span style=&quot;color: #9cdcfe;&quot;&gt;&quot;rep_id&quot;&lt;/span&gt;:&lt;span style=&quot;color: #b5cea8;&quot;&gt;54&lt;/span&gt;, &lt;span style=&quot;color: #6a9955;&quot;&gt;//видимо игнорируем    &lt;/span&gt;&lt;/div&gt;&lt;div&gt;    &lt;span style=&quot;color: #9cdcfe;&quot;&gt;&quot;status&quot;&lt;/span&gt;:&lt;span style=&quot;color: #b5cea8;&quot;&gt;1&lt;/span&gt;, &lt;span style=&quot;color: #6a9955;&quot;&gt;//на сессии ответов на вопросы сказали что игнорируем, вообще тут 1 - роутинг, ледокола нет, 2 - роутинг, возможен ледокол&lt;/span&gt;&lt;/div&gt;&lt;div&gt;}&lt;/div&gt;&lt;/div&gt;&lt;/div&gt;&lt;/div&gt;" style="rounded=0;whiteSpace=wrap;html=1;" vertex="1" parent="1">
                    <mxGeometry x="100" y="-920" width="570" height="200" as="geometry"/>
                </mxCell>
                <mxCell id="6" value="GET" style="text;html=1;strokeColor=none;fillColor=none;align=center;verticalAlign=middle;whiteSpace=wrap;rounded=0;fontSize=18;" vertex="1" parent="1">
                    <mxGeometry x="700" y="-670" width="60" height="30" as="geometry"/>
                </mxCell>
                <mxCell id="8" value="POST" style="text;html=1;strokeColor=none;fillColor=none;align=center;verticalAlign=middle;whiteSpace=wrap;rounded=0;fontSize=18;fontColor=#808080;" vertex="1" parent="1">
                    <mxGeometry x="700" y="-640" width="60" height="30" as="geometry"/>
                </mxCell>
                <mxCell id="9" value="PUT" style="text;html=1;strokeColor=none;fillColor=none;align=center;verticalAlign=middle;whiteSpace=wrap;rounded=0;fontSize=18;fontColor=#808080;" vertex="1" parent="1">
                    <mxGeometry x="700" y="-610" width="60" height="30" as="geometry"/>
                </mxCell>
                <mxCell id="10" value="DELETE" style="text;html=1;strokeColor=none;fillColor=none;align=center;verticalAlign=middle;whiteSpace=wrap;rounded=0;fontSize=18;fontColor=#808080;" vertex="1" parent="1">
                    <mxGeometry x="700" y="-580" width="60" height="30" as="geometry"/>
                </mxCell>
                <mxCell id="11" value="GET" style="text;html=1;strokeColor=none;fillColor=none;align=center;verticalAlign=middle;whiteSpace=wrap;rounded=0;fontSize=18;" vertex="1" parent="1">
                    <mxGeometry x="700" y="-419" width="60" height="30" as="geometry"/>
                </mxCell>
                <mxCell id="12" value="POST" style="text;html=1;strokeColor=none;fillColor=none;align=center;verticalAlign=middle;whiteSpace=wrap;rounded=0;fontSize=18;fontColor=#808080;" vertex="1" parent="1">
                    <mxGeometry x="700" y="-389" width="60" height="30" as="geometry"/>
                </mxCell>
                <mxCell id="13" value="PUT" style="text;html=1;strokeColor=none;fillColor=none;align=center;verticalAlign=middle;whiteSpace=wrap;rounded=0;fontSize=18;fontColor=#808080;" vertex="1" parent="1">
                    <mxGeometry x="700" y="-359" width="60" height="30" as="geometry"/>
                </mxCell>
                <mxCell id="14" value="DELETE" style="text;html=1;strokeColor=none;fillColor=none;align=center;verticalAlign=middle;whiteSpace=wrap;rounded=0;fontSize=18;fontColor=#808080;" vertex="1" parent="1">
                    <mxGeometry x="700" y="-329" width="60" height="30" as="geometry"/>
                </mxCell>
                <mxCell id="15" value="GET" style="text;html=1;strokeColor=none;fillColor=none;align=center;verticalAlign=middle;whiteSpace=wrap;rounded=0;fontSize=18;" vertex="1" parent="1">
                    <mxGeometry x="690" y="-910" width="60" height="30" as="geometry"/>
                </mxCell>
                <mxCell id="16" value="GET" style="text;html=1;strokeColor=none;fillColor=none;align=center;verticalAlign=middle;whiteSpace=wrap;rounded=0;fontSize=18;" vertex="1" parent="1">
                    <mxGeometry x="690" y="-1100" width="60" height="30" as="geometry"/>
                </mxCell>
                <mxCell id="17" value="&lt;div style=&quot;color: rgb(204, 204, 204); background-color: rgb(31, 31, 31); font-family: Menlo, Monaco, &amp;quot;Courier New&amp;quot;, monospace; line-height: 18px;&quot;&gt;&lt;div style=&quot;line-height: 18px;&quot;&gt;&lt;div style=&quot;line-height: 18px;&quot;&gt;&lt;div&gt;path: { &lt;span style=&quot;color: #6a9955;&quot;&gt;//описание маршрута движения одного судна &lt;/span&gt;&lt;/div&gt;&lt;div&gt;    &lt;span style=&quot;color: #9cdcfe;&quot;&gt;&quot;start_date&quot;&lt;/span&gt;:&lt;span style=&quot;color: #ce9178;&quot;&gt;&quot;01.03.2022 00:00&quot;&lt;/span&gt;,&lt;/div&gt;&lt;div&gt;    &lt;span style=&quot;color: #9cdcfe;&quot;&gt;&quot;end_date&quot;&lt;/span&gt;:&lt;span style=&quot;color: #ce9178;&quot;&gt;&quot;04.03.2022 07:00&quot;&lt;/span&gt;,&lt;/div&gt;&lt;div&gt;    &lt;span style=&quot;color: #9cdcfe;&quot;&gt;&quot;source&quot;&lt;/span&gt;:&lt;span style=&quot;color: #b5cea8;&quot;&gt;11&lt;/span&gt;, &lt;span style=&quot;color: #6a9955;&quot;&gt;// Пункт начала плавания, номер вершины в маршрутном графе&lt;/span&gt;&lt;/div&gt;&lt;div&gt;    &lt;span style=&quot;color: #9cdcfe;&quot;&gt;&quot;source_name&quot;&lt;/span&gt;:&lt;span style=&quot;color: #ce9178;&quot;&gt;&quot;Новый порт&quot;&lt;/span&gt;, &lt;span style=&quot;color: #6a9955;&quot;&gt;// название, определяется по номеру вершины&lt;/span&gt;&lt;/div&gt;&lt;div&gt;    &lt;span style=&quot;color: #9cdcfe;&quot;&gt;&quot;target&quot;&lt;/span&gt;:&lt;span style=&quot;color: #b5cea8;&quot;&gt;41&lt;/span&gt;, &lt;span style=&quot;color: #6a9955;&quot;&gt;//Пункт окончания плавания, номер вершины в маршрутном графе&lt;/span&gt;&lt;/div&gt;&lt;div&gt;    &lt;span style=&quot;color: #9cdcfe;&quot;&gt;&quot;target_name&quot;&lt;/span&gt;:&lt;span style=&quot;color: #ce9178;&quot;&gt;&quot;Рейд Мурманска&quot;&lt;/span&gt;, &lt;span style=&quot;color: #6a9955;&quot;&gt;// название, определяется по номеру вершины&lt;/span&gt;&lt;/div&gt;&lt;div&gt;    &lt;span style=&quot;color: #9cdcfe;&quot;&gt;&quot;min_ice_condition&quot;&lt;/span&gt;:&lt;span style=&quot;color: #b5cea8;&quot;&gt;19.6&lt;/span&gt;, &lt;span style=&quot;color: #6a9955;&quot;&gt;//худшие ледовые условия на маршруте&lt;/span&gt;&lt;/div&gt;&lt;div&gt;    &lt;span style=&quot;color: #9cdcfe;&quot;&gt;&quot;speed&quot;&lt;/span&gt;:&lt;span style=&quot;color: #b5cea8;&quot;&gt;9.5&lt;/span&gt;, &lt;span style=&quot;color: #6a9955;&quot;&gt;//средняя скорость на маршруте  &lt;/span&gt;&lt;/div&gt;&lt;div&gt;    &lt;span style=&quot;color: #9cdcfe;&quot;&gt;&quot;waybill&quot;&lt;/span&gt;: [ &lt;span style=&quot;color: #6a9955;&quot;&gt;// описание пути&lt;/span&gt;&lt;/div&gt;&lt;div&gt;            {&lt;span style=&quot;color: #9cdcfe;&quot;&gt;&quot;event&quot;&lt;/span&gt;:&lt;span style=&quot;color: #ce9178;&quot;&gt;&quot;move&quot;&lt;/span&gt;, &lt;span style=&quot;color: #6a9955;&quot;&gt;// move - начало самостоятельного движения из точки, wait - начало ожидания, formation - движение в караване из точки, fin - прибытие в конечную точку&lt;/span&gt;&lt;/div&gt;&lt;div&gt;             &lt;span style=&quot;color: #9cdcfe;&quot;&gt;&quot;point&quot;&lt;/span&gt;:&lt;span style=&quot;color: #b5cea8;&quot;&gt;11&lt;/span&gt;, &lt;span style=&quot;color: #6a9955;&quot;&gt;//где произошло событие&lt;/span&gt;&lt;/div&gt;&lt;div&gt;             &lt;span style=&quot;color: #9cdcfe;&quot;&gt;&quot;time&quot;&lt;/span&gt;:&lt;span style=&quot;color: #ce9178;&quot;&gt;&quot;01.03.2022 00:00&quot;&lt;/span&gt; &lt;span style=&quot;color: #6a9955;&quot;&gt;//когда произошло событие&lt;/span&gt;&lt;/div&gt;&lt;div&gt;            }&lt;/div&gt;&lt;div&gt;            {&lt;span style=&quot;color: #9cdcfe;&quot;&gt;&quot;event&quot;&lt;/span&gt;:&lt;span style=&quot;color: #ce9178;&quot;&gt;&quot;wait&quot;&lt;/span&gt;, &lt;span style=&quot;color: #9cdcfe;&quot;&gt;&quot;point&quot;&lt;/span&gt;:&lt;span style=&quot;color: #b5cea8;&quot;&gt;16&lt;/span&gt;, &lt;span style=&quot;color: #9cdcfe;&quot;&gt;&quot;time&quot;&lt;/span&gt;:&lt;span style=&quot;color: #ce9178;&quot;&gt;&quot;01.03.2022 08:00&quot;&lt;/span&gt;}&lt;/div&gt;&lt;div&gt;            {&lt;span style=&quot;color: #9cdcfe;&quot;&gt;&quot;event&quot;&lt;/span&gt;:&lt;span style=&quot;color: #ce9178;&quot;&gt;&quot;formation&quot;&lt;/span&gt;, &lt;span style=&quot;color: #9cdcfe;&quot;&gt;&quot;point&quot;&lt;/span&gt;:&lt;span style=&quot;color: #b5cea8;&quot;&gt;16&lt;/span&gt;, &lt;span style=&quot;color: #9cdcfe;&quot;&gt;&quot;time&quot;&lt;/span&gt;:&lt;span style=&quot;color: #ce9178;&quot;&gt;&quot;02.03.2022 08:00&quot;&lt;/span&gt;}&lt;/div&gt;&lt;div&gt;            {&lt;span style=&quot;color: #9cdcfe;&quot;&gt;&quot;event&quot;&lt;/span&gt;:&lt;span style=&quot;color: #ce9178;&quot;&gt;&quot;formation&quot;&lt;/span&gt;, &lt;span style=&quot;color: #9cdcfe;&quot;&gt;&quot;point&quot;&lt;/span&gt;:&lt;span style=&quot;color: #b5cea8;&quot;&gt;15&lt;/span&gt;, &lt;span style=&quot;color: #9cdcfe;&quot;&gt;&quot;time&quot;&lt;/span&gt;:&lt;span style=&quot;color: #ce9178;&quot;&gt;&quot;03.03.2022 08:00&quot;&lt;/span&gt;}&lt;/div&gt;&lt;div&gt;            {&lt;span style=&quot;color: #9cdcfe;&quot;&gt;&quot;event&quot;&lt;/span&gt;:&lt;span style=&quot;color: #ce9178;&quot;&gt;&quot;move&quot;&lt;/span&gt;, &lt;span style=&quot;color: #9cdcfe;&quot;&gt;&quot;point&quot;&lt;/span&gt;:&lt;span style=&quot;color: #b5cea8;&quot;&gt;16&lt;/span&gt;, &lt;span style=&quot;color: #9cdcfe;&quot;&gt;&quot;time&quot;&lt;/span&gt;:&lt;span style=&quot;color: #ce9178;&quot;&gt;&quot;03.03.2022 10:00&quot;&lt;/span&gt;}&lt;/div&gt;&lt;div&gt;            {&lt;span style=&quot;color: #9cdcfe;&quot;&gt;&quot;event&quot;&lt;/span&gt;:&lt;span style=&quot;color: #ce9178;&quot;&gt;&quot;fin&quot;&lt;/span&gt;, &lt;span style=&quot;color: #9cdcfe;&quot;&gt;&quot;point&quot;&lt;/span&gt;:&lt;span style=&quot;color: #b5cea8;&quot;&gt;41&lt;/span&gt;, &lt;span style=&quot;color: #9cdcfe;&quot;&gt;&quot;time&quot;&lt;/span&gt;:&lt;span style=&quot;color: #ce9178;&quot;&gt;&quot;04.03.2022 10:00&quot;&lt;/span&gt;}&lt;/div&gt;&lt;div&gt;        ],&lt;/div&gt;&lt;div&gt;    &lt;span style=&quot;color: #9cdcfe;&quot;&gt;&quot;path_line&quot;&lt;/span&gt;:&lt;span style=&quot;color: #ce9178;&quot;&gt;&quot;?????&quot;&lt;/span&gt; &lt;span style=&quot;color: #6a9955;&quot;&gt;// маршрут для отрисовки, задается либо линией на карте либо последовательностью точек&lt;/span&gt;&lt;/div&gt;&lt;div&gt;}&lt;/div&gt;&lt;/div&gt;&lt;/div&gt;&lt;/div&gt;" style="rounded=0;whiteSpace=wrap;html=1;" vertex="1" parent="1">
                    <mxGeometry x="870" y="-755" width="570" height="480" as="geometry"/>
                </mxCell>
                <mxCell id="20" value="&lt;div style=&quot;color: rgb(204, 204, 204); background-color: rgb(31, 31, 31); font-family: Menlo, Monaco, &amp;quot;Courier New&amp;quot;, monospace; line-height: 18px;&quot;&gt;&lt;div style=&quot;line-height: 18px;&quot;&gt;&lt;div style=&quot;line-height: 18px;&quot;&gt;&lt;div style=&quot;line-height: 18px;&quot;&gt;&lt;div&gt;POST_calc_path { &lt;span style=&quot;color: #6a9955;&quot;&gt;//запрос на расчет оптимального пути для выбранного судна без ледокольной проводки&lt;/span&gt;&lt;/div&gt;&lt;div&gt;    &lt;span style=&quot;color: #9cdcfe;&quot;&gt;&quot;vessel_id&quot;&lt;/span&gt;:&lt;span style=&quot;color: #b5cea8;&quot;&gt;1&lt;/span&gt;&lt;/div&gt;&lt;div&gt;} &lt;span style=&quot;color: #6a9955;&quot;&gt;// в овтете path&lt;/span&gt;&lt;/div&gt;&lt;/div&gt;&lt;/div&gt;&lt;/div&gt;&lt;/div&gt;" style="rounded=0;whiteSpace=wrap;html=1;" vertex="1" parent="1">
                    <mxGeometry x="870" y="-1035" width="570" height="90" as="geometry"/>
                </mxCell>
                <mxCell id="21" value="&lt;div style=&quot;color: rgb(204, 204, 204); background-color: rgb(31, 31, 31); font-family: Menlo, Monaco, &amp;quot;Courier New&amp;quot;, monospace; line-height: 18px;&quot;&gt;&lt;div style=&quot;line-height: 18px;&quot;&gt;&lt;div style=&quot;line-height: 18px;&quot;&gt;&lt;div style=&quot;line-height: 18px;&quot;&gt;&lt;div style=&quot;line-height: 18px;&quot;&gt;&lt;div&gt;POST_calc_path_ice { &lt;span style=&quot;color: #6a9955;&quot;&gt;//запрос на расчет оптимального пути для выбранного судна c ледокольной проводкой по заданным точкам начала и конца проводки и ледоколу&lt;/span&gt;&lt;/div&gt;&lt;div&gt;    &lt;span style=&quot;color: #9cdcfe;&quot;&gt;&quot;vessel_id&quot;&lt;/span&gt;:&lt;span style=&quot;color: #b5cea8;&quot;&gt;1&lt;/span&gt;,&lt;/div&gt;&lt;div&gt;    &lt;span style=&quot;color: #9cdcfe;&quot;&gt;&quot;icebreaker_id&quot;&lt;/span&gt;:&lt;span style=&quot;color: #b5cea8;&quot;&gt;1&lt;/span&gt;,&lt;/div&gt;&lt;div&gt;    &lt;span style=&quot;color: #9cdcfe;&quot;&gt;&quot;formation_point&quot;&lt;/span&gt;:&lt;span style=&quot;color: #b5cea8;&quot;&gt;15&lt;/span&gt;,&lt;/div&gt;&lt;div&gt;    &lt;span style=&quot;color: #9cdcfe;&quot;&gt;&quot;leave_point&quot;&lt;/span&gt;:&lt;span style=&quot;color: #b5cea8;&quot;&gt;20&lt;/span&gt;,&lt;/div&gt;&lt;div&gt;} &lt;span style=&quot;color: #6a9955;&quot;&gt;//в ответе path&lt;/span&gt;&lt;/div&gt;&lt;/div&gt;&lt;/div&gt;&lt;/div&gt;&lt;/div&gt;&lt;/div&gt;" style="rounded=0;whiteSpace=wrap;html=1;" vertex="1" parent="1">
                    <mxGeometry x="870" y="-925" width="570" height="140" as="geometry"/>
                </mxCell>
            </root>
        </mxGraphModel>
    </diagram>
</mxfile>